<mxfile host="app.diagrams.net" agent="Mozilla/5.0 (Macintosh; Intel Mac OS X 10_15_7) AppleWebKit/605.1.15 (KHTML, like Gecko) Version/17.6 Safari/605.1.15" version="24.7.16">
  <diagram name="Page-1" id="TqevF_K_1Zse74cjp3pf">
    <mxGraphModel dx="1134" dy="781" grid="1" gridSize="10" guides="1" tooltips="1" connect="1" arrows="1" fold="1" page="1" pageScale="1" pageWidth="827" pageHeight="1169" math="0" shadow="0">
      <root>
        <mxCell id="0" />
        <mxCell id="1" parent="0" />
        <mxCell id="DGTLoXSRhAIJQdGkN_dH-16" value="Администратор" style="rounded=0;whiteSpace=wrap;html=1;" vertex="1" parent="1">
          <mxGeometry x="304" y="80" width="120" height="60" as="geometry" />
        </mxCell>
        <mxCell id="DGTLoXSRhAIJQdGkN_dH-17" value="Менять пароль для учётных записей" style="rounded=0;whiteSpace=wrap;html=1;" vertex="1" parent="1">
          <mxGeometry x="304" y="200" width="120" height="60" as="geometry" />
        </mxCell>
        <mxCell id="DGTLoXSRhAIJQdGkN_dH-18" value="Поддержка пользователей" style="rounded=0;whiteSpace=wrap;html=1;" vertex="1" parent="1">
          <mxGeometry x="304" y="310" width="120" height="60" as="geometry" />
        </mxCell>
        <mxCell id="DGTLoXSRhAIJQdGkN_dH-19" value="" style="endArrow=none;html=1;rounded=0;entryX=0.5;entryY=0;entryDx=0;entryDy=0;exitX=0.5;exitY=1;exitDx=0;exitDy=0;" edge="1" parent="1" source="DGTLoXSRhAIJQdGkN_dH-17" target="DGTLoXSRhAIJQdGkN_dH-18">
          <mxGeometry width="50" height="50" relative="1" as="geometry">
            <mxPoint x="374" y="270" as="sourcePoint" />
            <mxPoint x="94" y="390" as="targetPoint" />
          </mxGeometry>
        </mxCell>
        <mxCell id="DGTLoXSRhAIJQdGkN_dH-20" value="" style="endArrow=none;html=1;rounded=0;exitX=0.5;exitY=0;exitDx=0;exitDy=0;entryX=0.5;entryY=1;entryDx=0;entryDy=0;" edge="1" parent="1" source="DGTLoXSRhAIJQdGkN_dH-17" target="DGTLoXSRhAIJQdGkN_dH-16">
          <mxGeometry width="50" height="50" relative="1" as="geometry">
            <mxPoint x="44" y="170" as="sourcePoint" />
            <mxPoint x="94" y="120" as="targetPoint" />
          </mxGeometry>
        </mxCell>
        <mxCell id="DGTLoXSRhAIJQdGkN_dH-21" value="Просматривать страницы" style="rounded=0;whiteSpace=wrap;html=1;" vertex="1" parent="1">
          <mxGeometry x="110" y="200" width="120" height="60" as="geometry" />
        </mxCell>
        <mxCell id="DGTLoXSRhAIJQdGkN_dH-22" value="Создавать учётные записи" style="rounded=0;whiteSpace=wrap;html=1;" vertex="1" parent="1">
          <mxGeometry x="304" y="420" width="120" height="60" as="geometry" />
        </mxCell>
        <mxCell id="DGTLoXSRhAIJQdGkN_dH-23" value="Настройка безопасности" style="rounded=0;whiteSpace=wrap;html=1;" vertex="1" parent="1">
          <mxGeometry x="470" y="210" width="120" height="60" as="geometry" />
        </mxCell>
        <mxCell id="DGTLoXSRhAIJQdGkN_dH-24" value="Решение технических задач" style="rounded=0;whiteSpace=wrap;html=1;" vertex="1" parent="1">
          <mxGeometry x="490" y="320" width="120" height="60" as="geometry" />
        </mxCell>
        <mxCell id="DGTLoXSRhAIJQdGkN_dH-26" value="" style="endArrow=none;html=1;rounded=0;entryX=0.5;entryY=1;entryDx=0;entryDy=0;exitX=0.5;exitY=0;exitDx=0;exitDy=0;" edge="1" parent="1" source="DGTLoXSRhAIJQdGkN_dH-22" target="DGTLoXSRhAIJQdGkN_dH-18">
          <mxGeometry width="50" height="50" relative="1" as="geometry">
            <mxPoint x="420" y="420" as="sourcePoint" />
            <mxPoint x="470" y="370" as="targetPoint" />
          </mxGeometry>
        </mxCell>
        <mxCell id="DGTLoXSRhAIJQdGkN_dH-28" value="" style="endArrow=none;html=1;rounded=0;exitX=0.5;exitY=0;exitDx=0;exitDy=0;entryX=0.5;entryY=1;entryDx=0;entryDy=0;" edge="1" parent="1" source="DGTLoXSRhAIJQdGkN_dH-23" target="DGTLoXSRhAIJQdGkN_dH-16">
          <mxGeometry width="50" height="50" relative="1" as="geometry">
            <mxPoint x="600" y="430" as="sourcePoint" />
            <mxPoint x="530" y="180" as="targetPoint" />
          </mxGeometry>
        </mxCell>
        <mxCell id="DGTLoXSRhAIJQdGkN_dH-29" value="" style="endArrow=none;html=1;rounded=0;exitX=0.5;exitY=0;exitDx=0;exitDy=0;entryX=0.5;entryY=1;entryDx=0;entryDy=0;" edge="1" parent="1" source="DGTLoXSRhAIJQdGkN_dH-21" target="DGTLoXSRhAIJQdGkN_dH-16">
          <mxGeometry width="50" height="50" relative="1" as="geometry">
            <mxPoint x="420" y="420" as="sourcePoint" />
            <mxPoint x="180" y="170" as="targetPoint" />
          </mxGeometry>
        </mxCell>
        <mxCell id="DGTLoXSRhAIJQdGkN_dH-30" value="" style="endArrow=none;html=1;rounded=0;exitX=0.5;exitY=0;exitDx=0;exitDy=0;entryX=0.5;entryY=1;entryDx=0;entryDy=0;" edge="1" parent="1" source="DGTLoXSRhAIJQdGkN_dH-24" target="DGTLoXSRhAIJQdGkN_dH-23">
          <mxGeometry width="50" height="50" relative="1" as="geometry">
            <mxPoint x="600" y="430" as="sourcePoint" />
            <mxPoint x="370" y="140" as="targetPoint" />
          </mxGeometry>
        </mxCell>
        <mxCell id="DGTLoXSRhAIJQdGkN_dH-31" value="Создавать страницы" style="rounded=0;whiteSpace=wrap;html=1;" vertex="1" parent="1">
          <mxGeometry x="110" y="305" width="120" height="60" as="geometry" />
        </mxCell>
        <mxCell id="DGTLoXSRhAIJQdGkN_dH-32" value="Редактировать страницы" style="rounded=0;whiteSpace=wrap;html=1;" vertex="1" parent="1">
          <mxGeometry x="110" y="405" width="120" height="60" as="geometry" />
        </mxCell>
        <mxCell id="DGTLoXSRhAIJQdGkN_dH-33" value="Удалять страницы" style="rounded=0;whiteSpace=wrap;html=1;" vertex="1" parent="1">
          <mxGeometry x="110" y="525" width="120" height="60" as="geometry" />
        </mxCell>
        <mxCell id="DGTLoXSRhAIJQdGkN_dH-56" value="" style="endArrow=none;html=1;rounded=0;entryX=0.5;entryY=1;entryDx=0;entryDy=0;exitX=0.5;exitY=0;exitDx=0;exitDy=0;" edge="1" parent="1" source="DGTLoXSRhAIJQdGkN_dH-32" target="DGTLoXSRhAIJQdGkN_dH-31">
          <mxGeometry width="50" height="50" relative="1" as="geometry">
            <mxPoint x="420" y="545" as="sourcePoint" />
            <mxPoint x="470" y="495" as="targetPoint" />
          </mxGeometry>
        </mxCell>
        <mxCell id="DGTLoXSRhAIJQdGkN_dH-57" value="" style="endArrow=none;html=1;rounded=0;exitX=0.5;exitY=1;exitDx=0;exitDy=0;entryX=0.5;entryY=0;entryDx=0;entryDy=0;" edge="1" parent="1" source="DGTLoXSRhAIJQdGkN_dH-32" target="DGTLoXSRhAIJQdGkN_dH-33">
          <mxGeometry width="50" height="50" relative="1" as="geometry">
            <mxPoint x="420" y="545" as="sourcePoint" />
            <mxPoint x="470" y="495" as="targetPoint" />
          </mxGeometry>
        </mxCell>
        <mxCell id="DGTLoXSRhAIJQdGkN_dH-72" value="" style="endArrow=none;html=1;rounded=0;exitX=0.5;exitY=0;exitDx=0;exitDy=0;" edge="1" parent="1" source="DGTLoXSRhAIJQdGkN_dH-31" target="DGTLoXSRhAIJQdGkN_dH-21">
          <mxGeometry width="50" height="50" relative="1" as="geometry">
            <mxPoint x="400" y="690" as="sourcePoint" />
            <mxPoint x="160" y="440" as="targetPoint" />
          </mxGeometry>
        </mxCell>
      </root>
    </mxGraphModel>
  </diagram>
</mxfile>
